<?xml version="1.0" encoding="UTF-8"?>
<svg id="Calque_6" data-name="Calque 6" xmlns="http://www.w3.org/2000/svg" viewBox="0 0 1080 1080">
  <defs>
    <style>
      .cls-1 {
        fill: #fff;
      }
    </style>
  </defs>
  <path class="cls-1" d="m681.55,900.55c.12-8.55,4.35-16.77,10.07-23.12l81.61-90.52c34.21-36.65,75.01-98.31,76.93-151.81l-.4-188.89c-.02-12.75,3.43-25.26,9.98-36.19l59.32-98.96c3.47-5.79,12.36-3.34,12.37,3.42l.44,327.52c-2.74,76.02-52.08,159-100.69,211.08l-138.94,146.55c-4,4.22-11.09,1.33-11.01-4.48l.33-94.6Z"/>
  <path class="cls-1" d="m422.1,995.22c0,5.53-6.41,8.58-10.7,5.08-2.71-2.21-5.5-4.61-8.1-7.21l-141.13-153.43c-46.71-53.79-112.6-126.74-112.61-202.81l-.04-321.55c0-7.09,9.34-9.68,12.99-3.59l58.9,98.44c6.58,11,10.06,23.57,10.06,36.39v186.34c0,53.54,58.1,104.88,90.98,142.73l91.35,108.56c5.37,6.38,8.31,14.44,8.31,22.78v88.27Z"/>
  <g>
    <g>
      <circle class="cls-1" cx="539.77" cy="186.2" r="27.87"/>
      <path class="cls-1" d="m545.61,54.48c-1.6-.05-3.2-.08-4.81-.08s-3.24.03-4.84.08c-93.48,3.18-152.38,102.46-113.03,187.31l117.76,245.96,117.92-245.89c39.42-84.86-19.48-184.22-112.99-187.38Zm-5.84,216.59c-46.87,0-84.87-38-84.87-84.87s38-84.87,84.87-84.87,84.87,38,84.87,84.87-38,84.87-84.87,84.87Z"/>
    </g>
    <path class="cls-1" d="m429.03,799.03c-1.93,11.69-18.78,11.53-20.47-.19-14.96-103.75-51.03-199.14-106.58-294.84L150.4,242.9c-7.1-12.23,1.74-27.55,15.88-27.53h160.29c36.67,0,70.06,21.16,85.7,54.33l116.75,243.84c-24.22,51.39-37.11,74.93-53.46,117.73-22.44,58.75-36.86,109.1-46.54,167.76Z"/>
    <path class="cls-1" d="m756.1,215.57c-36.83.07-70.34,21.29-86.15,54.55l-146.24,307.64c-54.81,118.18-83.21,237.86-83.21,368.13v60.81c0,10.44,8.46,18.9,18.9,18.9h184.69c10.49,0,18.99-8.5,18.99-18.99v-93.08c0-149.81,39.59-278.88,114.76-408.47l151.69-261.5c7.3-12.58-1.8-28.33-16.34-28.3l-157.1.3Z"/>
  </g>
</svg>