<?xml version="1.0" encoding="UTF-8"?>
<svg id="Calque_1" data-name="Calque 1" xmlns="http://www.w3.org/2000/svg" viewBox="0 0 140.52 193.85">
  <defs>
    <style>
      .cls-1, .cls-2 {
        fill: currentColor;
      }

      .cls-2 {
        stroke: currentColor;
        stroke-miterlimit: 10;
        stroke-width: 3.42px;
      }
    </style>
  </defs>
  <g>
    <path class="cls-2" d="m130.38,37.69c-1.76,2.35-4.03,4.3-6.66,5.67,4.18,8.27,6.54,17.62,6.54,27.53,0,30.78-29.69,77.06-59.99,108.39-29.64-30.71-60-77.96-60-108.39,0-33.43,26.91-60.62,59.99-60.62,9.68,0,18.84,2.33,26.94,6.46,1.39-2.62,3.35-4.9,5.73-6.65-9.72-5.33-20.85-8.37-32.67-8.37C32.47,1.71,1.71,32.74,1.71,70.89s39.19,91.18,65.53,117.52l3.02,3.02,3.03-3.02c31.56-31.56,65.52-81.8,65.52-117.52,0-12.03-3.06-23.34-8.43-33.2Z"/>
    <g>
      <path class="cls-1" d="m70.26,90.43h0c-4.6,0-8.4-3.39-8.67-7.73l-1.93-30.98c-.29-4.72,3.67-8.69,8.67-8.69h3.85c5,0,8.96,3.98,8.67,8.69l-1.93,30.98c-.27,4.34-4.07,7.73-8.67,7.73Z"/>
      <circle class="cls-1" cx="70.26" cy="106.19" r="8.2"/>
    </g>
  </g>
  <g>
    <rect class="cls-1" x="117.16" y="4.29" width="7.1" height="29.67" rx="3.55" ry="3.55"/>
    <rect class="cls-1" x="117.16" y="4.29" width="7.1" height="29.67" rx="3.55" ry="3.55" transform="translate(139.83 -101.59) rotate(90)"/>
  </g>
</svg>