<?xml version="1.0" encoding="UTF-8"?>
<svg id="Calque_1" data-name="Calque 1" xmlns="http://www.w3.org/2000/svg" viewBox="0 0 327.22 224.67">
  <defs>
    <style>
      .cls-1 {
        stroke-width: 4.51px;
      }

      .cls-1, .cls-2, .cls-3 {
        fill: none;
        stroke: #eaeaea;
        stroke-linecap: round;
        stroke-miterlimit: 10;
      }

      .cls-2 {
        stroke-width: 3.47px;
      }

      .cls-3 {
        stroke-width: 6.05px;
      }

      .cls-4 {
        fill: #eaeaea;
      }
    </style>
  </defs>
  <path class="cls-4" d="m139.03,73.92c-10.04-3.77-19.98-7.49-29.91-11.22-.65-.25-1.31-.49-1.96-.75-1.99-.82-3.17-2.21-2.22-4.38.9-2.05,2.67-2.45,4.72-1.69,7.65,2.87,15.31,5.71,22.95,8.61,6.45,2.45,12.82,5.24,20.29,3.29v-15.05c-4.9,0-9.89.01-14.88,0-6.41-.02-8.8-2.46-8.82-8.96,0-1.64-.11-3.29.03-4.91.28-3.33,1.86-5.95,5.28-6.53,2.11-.36,2.55-1.52,3-3.16,2.1-7.65,4.2-15.3,6.43-22.91,1.28-4.37,3.7-6.16,8.19-6.2,7.61-.06,15.21-.06,22.82,0,4.66.03,7.04,1.79,8.39,6.41,2.46,8.39,4.77,16.83,7.12,25.19,6.29,1.65,7.56,3.33,7.57,9.88,0,1.29.03,2.58,0,3.86-.15,4.4-2.88,7.24-7.27,7.32-5.37.1-10.75.02-16.41.02v15.85c4.08-.38,8.45.05,12.21-1.27,17.29-6.08,34.4-12.65,51.58-19.02,1.73-.64,2.83-1.29,2.98-3.6.32-4.85,3.47-7.37,8.45-7.46,1.17-.02,2.34-.02,3.51,0,5.57.08,8.67,3.09,8.74,8.69.08,6.44.02,12.87.02,19.31,0,1.27,0,2.55,0,3.91,2.98.95,5.75,1.79,8.49,2.72,3.61,1.23,5.59,3.78,5.63,7.61.07,6.55.09,13.11,0,19.66-.06,4.13-2.02,6.48-6.2,7.89q-7.92,2.67-7.92,11.01c0,4.92.06,9.83-.02,14.75-.09,5.6-2.94,8.41-8.44,8.49-1.4.02-2.81.03-4.21,0-4.85-.1-7.66-2.47-8.09-7.36-.18-2.01-.97-2.75-2.71-3.39-17.3-6.4-34.51-13.05-51.89-19.21-3.68-1.3-7.97-.86-12.43-1.26v4.47c0,16.62,0,33.24,0,49.85,0,1.17.28,2.57-.26,3.43-.7,1.12-2.12,2.52-3.19,2.49-1.04-.03-2.38-1.54-2.95-2.72-.52-1.05-.22-2.52-.22-3.81,0-35.34,0-70.69,0-106.03,0-1.51,0-3.02,0-4.77h-7.6v4.45c0,53.48,0,106.96,0,160.45,0,1.4.29,2.99-.28,4.15-.56,1.14-1.97,2.43-3.12,2.54-.92.09-2.37-1.28-2.93-2.34-.54-1.04-.29-2.51-.29-3.79-.01-34.52,0-69.05,0-103.57v-5.16c-5.19.81-10.07.83-14.41,2.37-16.73,5.91-33.28,12.33-49.92,18.49-1.73.64-2.53,1.39-2.71,3.39-.43,4.87-3.25,7.23-8.11,7.34-.12,0-.23,0-.35,0-10.58.15-12.3-1.54-12.3-12.03,0-5.62-.08-11.24.04-16.85.04-2.05-.45-3.19-2.61-3.75-12.92-3.36-11.59-5.63-11.58-16.18,0-3.98-.02-7.96,0-11.94.04-5.05,1.64-7.26,6.34-8.84,2.43-.81,4.89-1.57,7.8-2.51,0-3.43,0-7.02,0-10.62,0-3.04,0-6.09,0-9.13,0-10.32,2.32-12.56,12.62-12.21,4.55.16,7.76,2.68,8.06,7.11.17,2.54,1.33,3.43,3.36,4.08,1.78.57,3.8.92,5.16,2.04,1.07.88,1.3,2.78,1.91,4.22-1.46.56-2.94,1.63-4.37,1.56-1.77-.08-3.49-1.11-5.59-1.85v69.94c6.47-2.39,12.88-4.73,19.28-7.11,10.06-3.75,20.1-7.57,30.19-11.23,2.14-.78,3.15-1.68,3.1-4.19-.18-9.23-.07-18.48-.07-27.88Zm101.95-19.71c-17.97,6.71-35.32,13.19-52.78,19.7,0,9.77-.08,19.36.12,28.94.02,1.01,1.5,2.48,2.62,2.91,11.43,4.4,22.93,8.65,34.42,12.92,5.08,1.89,10.18,3.73,15.61,5.71,0-1.76,0-3.04,0-4.32,0-2.44.03-5.03,3.4-4.98,3.42.05,3.21,2.77,3.23,5.12.04,3.63.15,7.26-.03,10.88-.14,2.8.64,3.9,3.7,3.9,3.06,0,4.02-.85,4.01-3.97-.11-27.85-.09-55.7-.02-83.55,0-2.65-.68-3.67-3.53-3.73-3.2-.07-4.22.86-4.19,4.14.15,17.78.07,35.57.06,53.36,0,2.35-.26,4.77-3.34,4.72-3.01-.05-3.3-2.42-3.3-4.8,0-3.98,0-7.96,0-11.94,0-11.45,0-22.9,0-35.03Zm-97.33-22.52h39.93c-2.26-8.11-4.36-15.86-6.66-23.54-.22-.74-1.7-1.55-2.6-1.56-7.13-.13-14.26-.13-21.38,0-.91.02-2.4.81-2.62,1.54-2.3,7.68-4.4,15.43-6.66,23.57Zm-71.64,57.54c0,13.93-.03,27.85.05,41.78,0,1.25.32,3.15,1.14,3.63,3.25,1.88,6.41-.15,6.41-3.86,0-27.62-.03-55.23.05-82.85,0-2.86-.48-4.21-3.79-4.18-3.15.03-3.96,1.04-3.92,4.07.14,13.81.06,27.62.06,41.43Zm119.07-50.46h-54.93v7.24h54.93v-7.24Zm-45.35,64.74h7.15v-28.27h-7.15v28.27Zm35.81-28.33h-7.22v28.38h7.22v-28.38Zm-116.34,27.25v-26.1c-1.7.48-3.12.95-4.58,1.29-1.73.4-2.98.97-2.93,3.17.11,5.73-.05,11.47.13,17.19.03.97,1.03,2.29,1.93,2.76,1.61.83,3.5,1.13,5.45,1.7Zm196.8.01c1.97-.57,3.78-.79,5.26-1.61.99-.55,2.11-1.93,2.15-2.97.21-5.73.15-11.47.04-17.2-.02-.87-.62-2.19-1.31-2.5-1.86-.82-3.92-1.21-6.14-1.84v26.12Z"/>
  <path class="cls-4" d="m174.05,202.31c0,5.84-.01,11.67,0,17.51,0,2.38-.28,4.76-3.24,4.85-3,.1-3.4-2.26-3.4-4.66,0-12.02,0-24.05,0-36.07,0-2.28.43-4.48,3.2-4.5,2.93-.03,3.45,2.21,3.44,4.66-.02,6.07,0,12.14,0,18.21Z"/>
  <path class="cls-2" d="m287.29,70.99s5.21,5.31,5.21,18.39-5.21,17.54-5.21,17.54"/>
  <path class="cls-1" d="m301.01,65.62s6.77,6.9,6.77,23.88-6.77,22.78-6.77,22.78"/>
  <path class="cls-3" d="m315.12,57.68s9.07,9.25,9.07,32.01-9.07,30.53-9.07,30.53"/>
  <path class="cls-2" d="m39.92,70.99s-5.21,5.31-5.21,18.39c0,13.07,5.21,17.54,5.21,17.54"/>
  <path class="cls-1" d="m26.21,65.62s-6.77,6.9-6.77,23.88c0,16.98,6.77,22.78,6.77,22.78"/>
  <path class="cls-3" d="m12.1,57.68s-9.07,9.25-9.07,32.01,9.07,30.53,9.07,30.53"/>
</svg>