<?xml version="1.0" encoding="UTF-8"?>
<svg id="Calque_1" data-name="Calque 1" xmlns="http://www.w3.org/2000/svg" viewBox="0 0 226.72 157.55">
  <defs>
    <style>
      .cls-1 {
        fill: none;
        stroke: #eaeaea;
        stroke-miterlimit: 10;
        stroke-width: 6px;
      }
    </style>
  </defs>
  <path class="cls-1" d="m113.02,85.48c-24.36,0-48.73-.09-73.09.06-6.42.04-11.21-2.25-14.97-7.45-5.92-8.19-12.13-16.16-18.14-24.28-7.29-9.86-3.89-20.08,7.96-23.5C45.94,21.31,77.1,12.34,108.33,3.63c3.24-.9,7.18-.8,10.43.11,30.68,8.56,61.27,17.42,91.92,26.11,6.37,1.8,11.41,4.75,12.77,11.85.71,3.71,0,7.14-2.2,10.12-7.09,9.6-14.22,19.18-21.49,28.65-3.03,3.95-7.43,5.04-12.27,5.03-24.82-.04-49.65-.02-74.47-.02Zm-13.35-48.16c0,5.14-.27,9.97.06,14.75.5,7.1,6.14,12.34,13.1,12.66,6.87.31,13.23-4.59,14-11.59.57-5.17.11-10.46.11-15.82h-27.27Z"/>
  <path class="cls-1" d="m30.61,99.4h165.83c-.32,5.94-.28,11.78-1.11,17.5-.34,2.37-2.23,4.77-3.97,6.65-13.76,14.8-31.07,23.43-50.5,27.81-25.95,5.85-51.34,3.79-75.83-6.94-11.27-4.94-21.24-11.81-29.73-20.79-2.92-3.08-4.55-6.61-4.66-10.78-.12-4.35-.03-8.71-.03-13.44Z"/>
</svg>