<?xml version="1.0" encoding="UTF-8"?>
<svg xmlns="http://www.w3.org/2000/svg" viewBox="0 0 259.52 222.13">
  <defs>
    <style>
      .cls-1 {
        stroke-width: 4px;
      }

      .cls-1, .cls-2 {
        fill: none;
      }

      .cls-1, .cls-2, .cls-3 {
        stroke: #eaeaea;
      }

      .cls-1, .cls-3 {
        stroke-miterlimit: 10;
      }

      .cls-2 {
        stroke-linejoin: round;
        stroke-width: 5px;
      }

      .cls-4, .cls-3 {
        fill: #eaeaea;
      }

      .cls-3 {
        stroke-width: 2px;
      }
    </style>
  </defs>
  <g id="Calque_1" data-name="Calque 1">
    <path class="cls-4" d="m99.27,25.12h-6.14c-25.39,0-50.78,0-76.16,0C6.39,25.13.01,31.56,0,42.2c0,50.9,0,101.81,0,152.71,0,10.53,6.3,16.86,16.8,16.86,47.55.01,95.1.01,142.66,0-.25-2.03-.49-4.06-.75-6.1-47.09,0-94.18.01-141.27,0-7.74,0-11.34-3.59-11.36-11.28-.01-15.39-.04-30.79.06-46.18.01-1.37.55-3.12,1.48-4.06,17.34-17.48,34.76-34.88,52.18-52.28.37-.37.82-.66.9-.73,31.99,31.98,63.88,63.87,95.84,95.82-.1-.92-.2-1.85-.3-2.77-.2-1.95.23-4.22,1.09-6,.01-.03.03-.06.05-.09-23.72-23.71-47.44-47.43-71.16-71.16-7.15-7.15-14.29-14.3-21.45-21.44-3.34-3.34-4.08-3.32-7.5.09-16.01,16.01-32.03,32.02-48.01,48.07-.82.82-1.2,2.08-1.78,3.15-.46-.33-.93-.66-1.39-.98,0-7.09-.09-14.18.1-21.26.03-1.06,1.24-2.22,2.13-3.11,12.41-12.47,24.86-24.89,37.3-37.32,3.5-3.51,3.5-4.31.03-7.78-10.49-10.49-20.99-20.97-31.47-31.47-.77-.76-1.48-1.56-2.72-2.87,1.79-.29,3.01-.65,4.24-.67,5.49-.06,11.53-1.44,16.34.38,4.73,1.79,8.38,6.69,12.22,10.51,25.62,25.52,51.17,51.12,76.75,76.69,3.5,3.5,4.28,3.48,7.76-.07,11.94-12.16,23.87-24.32,35.8-36.49.69-.7,1.7-1.39,1.87-2.23.23-1.15.23-2.95-.46-3.52-.85-.7-2.59-.75-3.79-.46-.92.22-1.6,1.42-2.4,2.18-11.98,11.32-23.97,22.64-35.69,33.7-25.98-26.03-53.2-53.3-80.38-80.53.2-.02,1.08-.2,1.95-.2,16.06-.01,36.13.03,52.19-.05m54.1.04h12.45c9.89,0,19.79,0,29.69,0,3.16,0,6.15.42,9.16,4.14-3.21,2.82-6.64,5.55-9.75,8.61-6.04,5.92-11.92,12.02-17.83,18.07-1.68,1.71-4,3.5-1.4,6.03,2.52,2.46,4.12.02,5.69-1.56,7.42-7.51,14.8-15.04,22.2-22.57.73-.74,1.52-1.42,2.83-2.63,0,7.95.09,15.16-.1,22.36-.03,1.07-1.24,2.24-2.12,3.15-20.62,21.35-41.27,42.67-61.9,63.99-3.57,3.69-3.55,4.31.13,8.01,7.95,7.95,15.89,15.9,23.84,23.86,1.02-2.1,2.04-4.2,3.07-6.31-7.29-7.3-14.6-14.61-21.91-21.94,19.29-19.92,38.77-40.05,58.72-60.65v7.18c.24-.49.48-.99.73-1.48,1.44-2.95,3.37-5.55,5.67-7.7v-29.84c0-10.55-6.46-16.93-17.11-16.94-12.86-.01-25.72,0-38.58,0h-3.44m-112.61,45.64c-10.51,10.55-21.72,21.8-32.88,33.01V37.72c11.01,11.05,22.01,22.11,32.88,33.04Z"/>
    <g>
      <path class="cls-2" d="m242.06,67.18c-10.16-4.49-22.06.25-26.9,10.24l-.48,1-.64,1.31-51.67,106.48,5.58,29.73c.38,2.04,2.63,3.13,4.47,2.17l26.8-14.01,51.67-106.48.64-1.31.7-1.44c5.05-10.4.5-22.97-10.16-27.68Z"/>
      <line class="cls-2" x1="206.68" y1="92.44" x2="243.98" y2="110.51"/>
    </g>
  </g>
  <g id="Calque_2" data-name="Calque 2">
    <g>
      <path class="cls-3" d="m65.58,201.27l-1.25-1.25c-10.85-10.85-27-32.71-27-48.43s12.67-28.5,28.25-28.5,28.25,12.79,28.25,28.5c0,14.72-14,35.42-27,48.43l-1.25,1.25Zm0-74.65c-13.63,0-24.72,11.21-24.72,24.98,0,12.54,12.51,32.01,24.72,44.67,12.49-12.91,24.72-31.98,24.72-44.67,0-13.77-11.09-24.98-24.72-24.98Z"/>
      <circle class="cls-1" cx="65.58" cy="148.92" r="10.14"/>
    </g>
    <g>
      <path class="cls-3" d="m124.66,80.81l-1.25-1.25c-10.85-10.85-27-32.71-27-48.43S109.08,2.63,124.66,2.63s28.25,12.79,28.25,28.5c0,14.72-14,35.42-27,48.43l-1.25,1.25Zm0-74.65c-13.63,0-24.72,11.21-24.72,24.98,0,12.54,12.51,32.01,24.72,44.67,12.49-12.91,24.72-31.98,24.72-44.67,0-13.77-11.09-24.98-24.72-24.98Z"/>
      <circle class="cls-1" cx="124.66" cy="28.46" r="10.14"/>
    </g>
  </g>
</svg>