<?xml version="1.0" encoding="UTF-8"?>
<svg id="Calque_2" data-name="Calque 2" xmlns="http://www.w3.org/2000/svg" viewBox="0 0 219.66 218.68">
  <defs>
    <style>
      .cls-1, .cls-2 {
        fill: #eaeaea;
      }

      .cls-2 {
        stroke: #eaeaea;
        stroke-miterlimit: 10;
        stroke-width: 2px;
      }
    </style>
  </defs>
  <g>
    <path class="cls-1" d="m129.61,38.94c-1.9,0-3.43,1.53-3.43,3.43s1.53,3.43,3.43,3.43,3.43-1.54,3.43-3.43-1.54-3.43-3.43-3.43Zm-4.13-14.48l.5,8.08c.11,1.82,1.7,3.24,3.63,3.24s3.51-1.42,3.62-3.24l.51-8.08h-8.26Zm30.93,6.47c13.5-.01,32-.01,45.49-.01,3.28,0,6.42.38,8.89,3.47-.89.94-1.79,1.91-2.71,2.85-8.73,8.9-17.47,17.79-26.18,26.71-2.29,2.35-2.27,4.96.24,5.75,1.19.38,3.3-.38,4.28-1.35,8.06-7.95,15.94-16.07,23.89-24.14.77-.78,1.6-1.5,2.99-2.81,0,8.25.09,15.75-.1,23.24-.03,1.12-1.26,2.34-2.17,3.29-21.45,22.22-42.94,44.4-64.41,66.59-3.74,3.87-3.74,4.54.05,8.33,20.69,20.71,41.39,41.43,62.11,62.12.88.88,2.04,1.47,3.94,2.81-2.92,1.79-4.66,3.63-6.63,3.91-4.26.63-8.64.6-12.97.52-.99-.03-2.06-1.27-2.92-2.13-40.36-40.34-80.7-80.69-121.04-121.04-.65-.65-1.29-1.3-1.94-1.94-3.22-3.16-4.13-3.18-7.32,0-17,16.98-33.98,33.97-50.97,50.95-.62.62-1.31,1.18-2.56,2.3,0-8.14-.08-15.62.1-23.09.02-1,1.29-2.06,2.15-2.93,12.76-12.8,25.55-25.57,38.33-38.34,4.42-4.42,4.42-4.74-.13-9.29-10.67-10.67-21.33-21.36-32.03-32-.8-.8-1.88-1.3-2.83-1.94.19-.39.37-.77.55-1.16,1.15-.22,2.29-.6,3.44-.62,5.71-.07,11.44-.19,17.15.05,1.35.05,2.89,1.19,3.94,2.24,29.16,29.07,58.26,58.2,87.37,87.32.89.89,1.78,1.78,2.67,2.66,1.88,1.88,3.76,1.95,5.66.02,13.21-13.48,26.43-26.94,39.64-40.42,1.6-1.62,2.04-3.45.21-5.07-1.84-1.63-3.53-.77-5.07.81-11.83,12.1-23.69,24.18-35.53,36.28-.56.57-.96,1.29-1.16,1.55-28.66-28.68-57.02-57.07-85.27-85.34.45-.03,1.52-.16,2.6-.16,15.49-.01,30.98.03,46.47-.04.98-.01,1.97-.01,2.95-.02.17,0,5.34,0,5.5.01v-6.42h-8.32c-25.54,0-51.09-.01-76.63,0C6.55,24.46,0,30.96,0,42.45v158.21c0,11.64,6.39,18.01,18.05,18.01,61.18.01,122.36.01,183.54,0,11.01,0,18.06-6.98,18.06-17.9.01-52.85.01-105.7,0-158.55,0-11.04-6.68-17.74-17.68-17.76-11.4-.02-22.79-.01-34.19,0h-11.51M6.87,37.08c11.75,11.78,23.23,23.29,34.59,34.68L6.87,106.35V37.08Zm171.74,175.26c-53.29,0-106.59,0-159.88-.01-8.78,0-12.38-3.54-12.39-12.2-.01-15.79-.05-31.58.07-47.37.01-1.53.59-3.48,1.62-4.52,18.03-18.2,36.16-36.29,54.28-54.4.31-.31.68-.58.68-.58,39.71,39.71,79.32,79.33,119.06,119.08h-3.44Zm34.39-12.88c-20.42-20.44-40.68-40.72-61.08-61.14,20.06-20.72,40.32-41.65,61.08-63.09v124.23ZM130.41,15.94h-1.61c-2.09,0-3.75,1.67-3.62,3.64l.3,4.88h8.26l.3-4.88c.12-1.97-1.54-3.64-3.63-3.64Z"/>
    <g>
      <path class="cls-1" d="m64.81,155.91h0c-1.92,0-3.51-1.42-3.63-3.23l-.81-12.96c-.12-1.97,1.54-3.64,3.63-3.64h1.61c2.09,0,3.75,1.66,3.63,3.64l-.81,12.96c-.11,1.82-1.7,3.23-3.63,3.23Z"/>
      <circle class="cls-1" cx="64.81" cy="162.5" r="3.43"/>
    </g>
    <g>
      <path class="cls-1" d="m134.04,19.58l-.3,4.88-.51,8.08c-.11,1.82-1.7,3.24-3.62,3.24s-3.52-1.42-3.63-3.24l-.5-8.08-.3-4.88c-.13-1.97,1.53-3.64,3.62-3.64h1.61c2.09,0,3.75,1.67,3.63,3.64Z"/>
      <path class="cls-1" d="m133.04,42.37c0,1.89-1.54,3.43-3.43,3.43s-3.43-1.54-3.43-3.43,1.53-3.43,3.43-3.43,3.43,1.53,3.43,3.43Z"/>
    </g>
  </g>
  <path class="cls-1" d="m133.04,42.37c0,1.89-1.54,3.43-3.43,3.43s-3.43-1.54-3.43-3.43,1.53-3.43,3.43-3.43,3.43,1.53,3.43,3.43Z"/>
  <path class="cls-1" d="m125.48,24.46l-.3-4.88c-.13-1.97,1.53-3.64,3.62-3.64h1.61c2.09,0,3.75,1.67,3.63,3.64l-.3,4.88-.51,8.08c-.11,1.82-1.7,3.24-3.62,3.24s-3.52-1.42-3.63-3.24l-.5-8.08Z"/>
  <path class="cls-2" d="m64.81,199.49l-1.25-1.25c-10.85-10.85-27-32.71-27-48.43s12.67-28.5,28.25-28.5,28.25,12.79,28.25,28.5c0,14.72-14,35.42-27,48.43l-1.25,1.25Zm0-74.65c-13.63,0-24.72,11.21-24.72,24.98,0,12.54,12.51,32.01,24.72,44.67,12.49-12.91,24.72-31.98,24.72-44.67,0-13.77-11.09-24.98-24.72-24.98Z"/>
  <path class="cls-2" d="m129.61,79.18l-1.25-1.25c-10.85-10.85-27-32.71-27-48.43S114.03,1,129.61,1s28.25,12.79,28.25,28.5c0,14.72-14,35.42-27,48.43l-1.25,1.25Zm0-74.65c-13.63,0-24.72,11.21-24.72,24.98,0,12.54,12.51,32.01,24.72,44.67,12.49-12.91,24.72-31.98,24.72-44.67,0-13.77-11.09-24.98-24.72-24.98Z"/>
</svg>