<?xml version="1.0" encoding="UTF-8"?>
<svg id="Calque_1" data-name="Calque 1" xmlns="http://www.w3.org/2000/svg" viewBox="0 0 198.05 211.35">
  <defs>
    <style>
      .cls-1, .cls-2 {
        fill: #eaeaea;
      }

      .cls-2 {
        stroke: #eaeaea;
        stroke-miterlimit: 10;
        stroke-width: 2px;
      }
    </style>
  </defs>
  <g>
    <g>
      <path class="cls-1" d="m33.11,161.64c-1.85,0-3.7,0-5.56,0-2.59,0-4.57-1.37-5.41-3.73-.5-1.4-.42-2.83.24-4.13,2.28-4.51,5.51-7.9,9.6-10.07,1.68-.89,2.79-.77,4.24.48,1.66,1.43,3.43,2.05,5.41,1.9,1.54-.11,2.97-.75,4.37-1.94,1.4-1.19,2.52-1.31,4.13-.46,4.17,2.19,7.42,5.6,9.65,10.11.78,1.58.75,3.38-.1,4.94-.85,1.57-2.43,2.64-4.22,2.85-.36.04-.73.05-1.1.05h-17.29c-1.32,0-2.65,0-3.97,0Zm.61-14.33c-3.33,1.8-5.87,4.5-7.77,8.27-.16.32-.17.62-.04.99.2.56.53,1.07,1.65,1.07,3.17,0,6.35,0,9.52,0h17.29c.21,0,.42,0,.62-.03.51-.06.94-.35,1.17-.79.13-.23.3-.71.03-1.26-1.85-3.73-4.38-6.43-7.75-8.25-2.03,1.69-4.17,2.59-6.52,2.76-3,.22-5.75-.71-8.19-2.77Z"/>
      <path class="cls-1" d="m41.06,142.14c-2.06,0-4.12-.77-5.9-2.32-3.26-2.83-5.03-6.43-5.27-10.71-.18-3.25,1.1-6.4,3.5-8.66,2.43-2.28,5.69-3.35,8.96-2.96,5.89.71,9.97,5.59,9.92,11.87v.13c-.3,4.15-2.28,7.89-5.57,10.55-1.73,1.4-3.69,2.09-5.64,2.09Zm-.03-20.72c-1.8,0-3.55.69-4.9,1.96-1.54,1.44-2.36,3.45-2.24,5.51.18,3.16,1.49,5.82,3.9,7.91,1.98,1.72,4.37,1.77,6.4.14,2.4-1.94,3.85-4.66,4.09-7.66,0-4.21-2.56-7.34-6.4-7.81-.28-.03-.56-.05-.85-.05Z"/>
    </g>
    <path class="cls-2" d="m41.08,209.93l-1.77-1.77C23.91,192.76,1,161.76,1,139.45s17.98-40.45,40.08-40.45,40.08,18.14,40.08,40.45c0,20.89-19.86,50.26-38.31,68.71l-1.77,1.77Zm0-105.93c-19.34,0-35.08,15.9-35.08,35.45,0,17.79,17.76,45.42,35.08,63.38,17.72-18.32,35.08-45.38,35.08-63.38,0-19.54-15.74-35.45-35.08-35.45Z"/>
  </g>
  <g>
    <g>
      <path class="cls-1" d="m91.41,63.64c-1.85,0-3.7,0-5.56,0-2.6,0-4.57-1.37-5.41-3.73-.5-1.4-.42-2.83.24-4.13,2.28-4.51,5.51-7.9,9.6-10.07,1.68-.89,2.79-.77,4.24.48,1.66,1.43,3.43,2.04,5.41,1.9,1.54-.11,2.97-.75,4.37-1.94,1.4-1.19,2.51-1.31,4.13-.46,4.17,2.19,7.42,5.6,9.65,10.11.78,1.58.75,3.38-.1,4.94-.85,1.57-2.43,2.64-4.21,2.85-.36.04-.73.05-1.09.05h-17.3c-1.32,0-2.65,0-3.97,0Zm.61-14.33c-3.32,1.8-5.87,4.5-7.77,8.27-.16.32-.18.62-.04.99.2.56.53,1.07,1.65,1.07,3.17,0,6.35,0,9.52,0h17.29c.2,0,.41,0,.62-.03.51-.06.94-.35,1.17-.79.13-.23.3-.71.03-1.26-1.84-3.73-4.38-6.43-7.75-8.25-2.03,1.68-4.17,2.59-6.52,2.76-3,.21-5.75-.71-8.19-2.77Z"/>
      <path class="cls-1" d="m99.37,44.14c-2.06,0-4.12-.77-5.9-2.32-3.26-2.83-5.03-6.44-5.27-10.71-.18-3.25,1.1-6.4,3.5-8.66,2.43-2.28,5.69-3.35,8.96-2.96,5.89.71,9.97,5.59,9.92,11.87v.13c-.3,4.15-2.28,7.89-5.57,10.55-1.73,1.4-3.69,2.09-5.64,2.09Zm-.03-20.72c-1.8,0-3.55.69-4.9,1.96-1.54,1.44-2.36,3.45-2.24,5.51.18,3.16,1.49,5.82,3.9,7.91,1.98,1.72,4.37,1.77,6.4.14,2.4-1.94,3.85-4.66,4.09-7.66,0-4.21-2.56-7.34-6.4-7.81-.28-.03-.56-.05-.85-.05Z"/>
    </g>
    <path class="cls-2" d="m99.38,111.93l-1.77-1.77c-15.4-15.4-38.31-46.41-38.31-68.71S77.28,1,99.38,1s40.08,18.14,40.08,40.45c0,20.89-19.86,50.26-38.31,68.71l-1.77,1.77Zm0-105.93c-19.34,0-35.08,15.9-35.08,35.45,0,17.8,17.76,45.42,35.08,63.38,17.72-18.32,35.08-45.38,35.08-63.38,0-19.54-15.74-35.45-35.08-35.45Z"/>
  </g>
  <g>
    <g>
      <path class="cls-1" d="m148.99,161.64c-1.85,0-3.7,0-5.56,0-2.6,0-4.57-1.37-5.41-3.73-.5-1.4-.42-2.83.24-4.13,2.28-4.51,5.51-7.9,9.6-10.07,1.68-.89,2.79-.77,4.24.48,1.66,1.43,3.43,2.05,5.41,1.9,1.54-.11,2.97-.75,4.37-1.94,1.4-1.19,2.51-1.31,4.13-.46,4.17,2.19,7.42,5.6,9.65,10.11.78,1.58.75,3.38-.1,4.94-.85,1.57-2.43,2.64-4.22,2.85-.36.04-.73.05-1.1.05h-17.29c-1.32,0-2.65,0-3.97,0Zm.61-14.33c-3.33,1.8-5.87,4.5-7.77,8.27-.16.32-.18.62-.04.99.2.56.53,1.07,1.65,1.07,3.17,0,6.35,0,9.52,0h17.29c.21,0,.42,0,.62-.03.51-.06.94-.35,1.17-.79.13-.23.3-.71.03-1.26-1.84-3.73-4.38-6.43-7.75-8.25-2.03,1.69-4.17,2.59-6.52,2.76-3,.22-5.75-.71-8.19-2.77Z"/>
      <path class="cls-1" d="m156.95,142.14c-2.06,0-4.12-.77-5.9-2.32-3.26-2.83-5.03-6.43-5.27-10.71-.18-3.25,1.1-6.4,3.5-8.66,2.43-2.28,5.69-3.35,8.96-2.96,5.89.71,9.96,5.59,9.92,11.87v.13c-.3,4.15-2.28,7.89-5.57,10.55-1.73,1.4-3.69,2.09-5.64,2.09Zm-.03-20.72c-1.8,0-3.55.69-4.9,1.96-1.54,1.44-2.36,3.45-2.24,5.51.18,3.16,1.49,5.82,3.9,7.91,1.98,1.72,4.37,1.77,6.4.14,2.4-1.94,3.85-4.66,4.09-7.66,0-4.21-2.56-7.34-6.4-7.81-.28-.03-.56-.05-.85-.05Z"/>
    </g>
    <path class="cls-2" d="m156.97,209.93l-1.77-1.77c-15.4-15.4-38.31-46.41-38.31-68.71s17.98-40.45,40.08-40.45,40.08,18.14,40.08,40.45c0,20.89-19.86,50.26-38.31,68.71l-1.77,1.77Zm0-105.93c-19.34,0-35.08,15.9-35.08,35.45,0,17.8,17.76,45.42,35.08,63.38,17.72-18.32,35.08-45.38,35.08-63.38,0-19.54-15.74-35.45-35.08-35.45Z"/>
  </g>
  <path class="cls-1" d="m21.56,99.31c-.13,0-.26,0-.4-.03-1.36-.22-2.29-1.5-2.07-2.86,3.36-20.97,14.64-39.54,31.76-52.29,1.11-.82,2.67-.59,3.5.51.82,1.11.6,2.67-.51,3.5-16.07,11.97-26.66,29.4-29.81,49.07-.2,1.23-1.26,2.1-2.47,2.1Z"/>
  <path class="cls-1" d="m176.94,97.72c-1.19,0-2.24-.85-2.46-2.05-3.44-18.92-13.85-35.74-29.31-47.35-1.1-.83-1.33-2.4-.5-3.5.83-1.1,2.4-1.33,3.5-.5,16.48,12.37,27.57,30.29,31.23,50.46.25,1.36-.65,2.66-2.01,2.91-.15.03-.3.04-.45.04Z"/>
  <path class="cls-1" d="m99.38,190.72c-9.66,0-19.11-1.68-28.09-4.98-1.3-.48-1.96-1.91-1.48-3.21.48-1.3,1.91-1.96,3.21-1.48,8.43,3.1,17.3,4.67,26.36,4.67s17.08-1.43,25.15-4.24c1.3-.45,2.73.23,3.18,1.54.46,1.3-.23,2.73-1.54,3.18-8.59,3-17.61,4.52-26.79,4.52Z"/>
</svg>