<svg id="Flat" height="512" viewBox="0 0 64 64" width="512" xmlns="http://www.w3.org/2000/svg" xmlns:xlink="http://www.w3.org/1999/xlink"><linearGradient id="linear-gradient" gradientUnits="userSpaceOnUse" x1="21.25" x2="42.75" y1="32.025" y2="32.025"><stop offset="0" stop-color="#ffde00"/><stop offset="1" stop-color="#fd5900"/></linearGradient><path d="m25.5 10.50011c.30962-8.59955 12.6891-8.60177 13-.00011a6.5 6.5 0 0 1 -13 .00011zm12.35 8.49989h-11.7a4.908 4.908 0 0 0 -4.9 4.9v13.65a2.949 2.949 0 0 0 2.95 2.95h.95v16.55a2.949 2.949 0 0 0 2.95 2.95h7.8a2.949 2.949 0 0 0 2.95-2.95v-16.55h.95a2.949 2.949 0 0 0 2.95-2.95v-13.65a4.908 4.908 0 0 0 -4.9-4.9z" fill="url(#linear-gradient)"/></svg>