<?xml version="1.0" encoding="UTF-8"?>
<svg id="Calque_1" data-name="Calque 1" xmlns="http://www.w3.org/2000/svg" viewBox="0 0 188.45 199.71">
  <defs>
    <style>
      .cls-1 {
        fill: none;
        stroke: #eaeaea;
        stroke-miterlimit: 10;
        stroke-width: 10px;
      }
    </style>
  </defs>
  <path class="cls-1" d="m94.06,194.71c-23.26,0-46.51.02-69.77-.01-9.06-.01-15.37-4.39-18.23-12.43-1.61-4.52-1.4-9,.73-13.24,10.3-20.39,24.85-36.77,45.23-47.58,4.92-2.61,6.12-2.43,10.34,1.19,10.2,8.74,21.85,13.29,35.43,12.3,10.98-.8,20.29-5.45,28.55-12.48,3.96-3.37,5.2-3.55,9.83-1.11,20.52,10.79,35.28,27.15,45.45,47.73,5.46,11.05-1.98,23.96-14.24,25.42-1.47.18-2.96.2-4.44.2-22.96.01-45.92,0-68.88,0Z"/>
  <path class="cls-1" d="m141.77,56.38c-1.21,16.9-8.89,34.27-24.97,47.25-14.47,11.68-32.34,11.26-46.38-.94-14.58-12.67-22.61-28.89-23.68-48.14-1.61-29.01,24.06-52.69,52.87-49.2,24.39,2.95,42.39,23.22,42.17,51.03Z"/>
</svg>